<?xml version="1.0" standalone="no"?><!DOCTYPE svg PUBLIC "-//W3C//DTD SVG 1.1//EN" "http://www.w3.org/Graphics/SVG/1.1/DTD/svg11.dtd">
<svg t="1636123349007" class="icon" viewBox="0 0 1024 1024" version="1.1" xmlns="http://www.w3.org/2000/svg" 
p-id="1655" xmlns:xlink="http://www.w3.org/1999/xlink" 
width="1024" height="1024"><defs><style type="text/css"></style></defs>
<path d="M150.058667 254.378667
l-1.493334 1.493333
a196.266667 196.266667 0 0 0 0 277.568

L522.666667 907.562667
l374.101333-374.122667

a196.266667 196.266667 0 0 0 3.968-273.493333
l-5.461333-5.568-4.096-3.968

a196.266667 196.266667 0 0 0-273.493334 3.968
L522.666667 349.397333l-95.018667-95.018666

a196.266667 196.266667 0 0 0-277.546667 0z 

m43.754666 46.762666
l1.493334-1.493333

a132.266667 132.266667 0 0 1 187.072 0
l140.266666 140.245333 140.309334-140.266666

a132.266667 132.266667 0 0 1 187.050666 0
l4.885334 5.013333a132.266667 132.266667 0 0 1-3.370667 183.552
L522.645333 817.024 193.813333 488.192

a132.266667 132.266667 0 0 1 0-187.050667z" 
fill="#1677FF" p-id="1656"></path></svg>