<?xml version="1.0" standalone="no"?><!DOCTYPE svg PUBLIC "-//W3C//DTD SVG 1.1//EN" "http://www.w3.org/Graphics/SVG/1.1/DTD/svg11.dtd"><svg t="1639225800035" class="icon" viewBox="0 0 1024 1024" version="1.1" xmlns="http://www.w3.org/2000/svg" p-id="38253" xmlns:xlink="http://www.w3.org/1999/xlink" width="200" height="200"><defs><style type="text/css"></style></defs><path d="M512 0C229.229617 0 0.000903 229.234133 0.000903 511.995484 0.000903 794.762255 229.229617 1023.998194 512 1023.998194S1023.999097 794.764061 1023.999097 511.995484C1023.999097 229.234133 794.770383 0 512 0z m83.618783 762.868088c0 45.991685-37.627097 83.616976-83.618783 83.616976-46.006135 0-83.624201-37.625291-83.624201-83.616976V512.000903c0-45.997104 37.618066-83.624201 83.624201-83.624201 45.991685 0 83.618783 37.627097 83.618783 83.624201v250.867185z m-83.618783-418.113781c-46.006135 0-83.624201-37.627097-83.624201-83.616976 0-45.99891 37.618066-83.624201 83.624201-83.624202 45.991685 0 83.618783 37.625291 83.618783 83.624202 0 45.991685-37.627097 83.616976-83.618783 83.616976z" fill="#8a8a8a" p-id="38254"></path></svg>